<?xml version="1.0" encoding="utf-8"?>
<!-- Generator: Adobe Illustrator 25.4.1, SVG Export Plug-In . SVG Version: 6.00 Build 0)  -->
<svg version="1.1" id="Layer_1" xmlns="http://www.w3.org/2000/svg" xmlns:xlink="http://www.w3.org/1999/xlink" x="0px" y="0px"
	 viewBox="0 0 237.6 53" style="enable-background:new 0 0 237.6 53;" xml:space="preserve">
<style type="text/css">
	.st0{fill:#173A58;}
	.st1{fill:#0F82D8;}
</style>
<g>
	<path class="st0" d="M58.9,52.7L58.9,52.7c0.1,0,0.2-0.1,0.2-0.2V0.5c0-0.1-0.1-0.2-0.2-0.2l0,0c-0.1,0-0.2,0.1-0.2,0.2v51.9
		C58.6,52.6,58.7,52.7,58.9,52.7z"/>
	<g>
		<path class="st1" d="M19.6,11.3H25c0,2,1.6,3.6,3.6,3.6v-3.6c0-2-1.6-3.6-3.6-3.6h-5.4c-2,0-3.6,1.6-3.6,3.6v3.6
			C18,14.9,19.6,13.3,19.6,11.3z"/>
		<path class="st1" d="M30.4,11.3v3.6c5.8,0,10.4,4.7,10.4,10.4c0,3.7-2,7-4.9,8.9c0.2-0.9,0.3-1.9,0.3-2.8
			c0-7.6-6.2-13.8-13.8-13.8S8.5,23.7,8.5,31.4c0,1,0.1,1.9,0.3,2.8c-3-1.8-4.9-5.1-4.9-8.8c0-5.8,4.7-10.4,10.4-10.4v-3.6
			c-7.7,0-14,6.3-14,14c0,6.5,4.4,12,10.5,13.6c2.5,3.8,6.7,6.3,11.6,6.3c4.9,0,9.1-2.5,11.6-6.3c6-1.6,10.5-7.1,10.5-13.6
			C44.4,17.6,38.1,11.3,30.4,11.3z M22.3,41.6C16.6,41.6,12,37,12,31.4s4.6-10.3,10.3-10.3s10.3,4.6,10.3,10.3S28,41.6,22.3,41.6z"
			/>
		<path class="st1" d="M21.7,24.7c-3.2,0.3-5.8,2.9-6.1,6.1c-0.1,1.6,0.3,3.2,1.2,4.4c0.2,0.3,0.7,0.1,0.6-0.3
			c-0.2-0.6-0.3-1.3-0.3-2c0-3.7,3-6.7,6.7-6.7c0.7,0,1.4,0.1,2,0.3c0.4,0.1,0.6-0.4,0.3-0.6C24.9,25,23.3,24.6,21.7,24.7z"/>
	</g>
	<g>
		<path class="st1" d="M74,28.8c-0.2,0-0.3-0.1-0.4-0.2c-0.1-0.1-0.2-0.3-0.2-0.4V9.8c0-0.2,0.1-0.4,0.2-0.5
			c0.1-0.1,0.3-0.2,0.4-0.2h6.8c1.3,0,2.4,0.2,3.4,0.7c1,0.4,1.7,1.1,2.2,1.9c0.5,0.9,0.8,1.9,0.8,3.2s-0.3,2.3-0.8,3.2
			c-0.5,0.9-1.3,1.5-2.2,1.9c-1,0.4-2.1,0.7-3.4,0.7h-5.7v7.4c0,0.2-0.1,0.3-0.2,0.4c-0.1,0.1-0.3,0.2-0.5,0.2H74z M75.1,19.1h5.5
			c1.6,0,2.8-0.4,3.6-1.1c0.8-0.7,1.2-1.7,1.2-3.1c0-1.3-0.4-2.3-1.2-3.1c-0.8-0.7-2-1.1-3.6-1.1h-5.5V19.1z"/>
		<path class="st1" d="M90.8,28.8c-0.2,0-0.3-0.1-0.4-0.2c-0.1-0.1-0.2-0.3-0.2-0.4V9.5c0-0.2,0.1-0.3,0.2-0.4
			c0.1-0.1,0.3-0.2,0.4-0.2h0.5c0.2,0,0.3,0.1,0.4,0.2c0.1,0.1,0.2,0.3,0.2,0.4v6.6c0.5-0.7,1.1-1.2,1.8-1.6
			c0.7-0.4,1.7-0.6,2.9-0.6c1.3,0,2.3,0.3,3.2,0.8c0.8,0.6,1.5,1.3,1.9,2.2c0.4,0.9,0.6,2,0.6,3.2v8c0,0.2-0.1,0.3-0.2,0.4
			c-0.1,0.1-0.3,0.2-0.4,0.2h-0.5c-0.2,0-0.3-0.1-0.4-0.2c-0.1-0.1-0.2-0.3-0.2-0.4v-7.8c0-1.5-0.4-2.7-1.1-3.5
			c-0.7-0.8-1.8-1.3-3.2-1.3c-1.3,0-2.4,0.4-3.2,1.3s-1.2,2-1.2,3.5v7.8c0,0.2-0.1,0.3-0.2,0.4c-0.1,0.1-0.3,0.2-0.4,0.2H90.8z"/>
		<path class="st1" d="M111.7,29.1c-1.3,0-2.5-0.3-3.4-0.8c-0.9-0.6-1.6-1.3-2.1-2.3c-0.5-1-0.7-2.1-0.8-3.2c0-0.3,0-0.7,0-1.2
			c0-0.5,0-0.9,0-1.2c0-1.2,0.3-2.3,0.8-3.3c0.5-1,1.2-1.7,2.1-2.3c0.9-0.6,2-0.8,3.4-0.8c1.3,0,2.5,0.3,3.4,0.8
			c0.9,0.6,1.6,1.3,2.1,2.3c0.5,1,0.7,2,0.8,3.3c0,0.3,0,0.7,0,1.2c0,0.5,0,0.9,0,1.2c0,1.2-0.3,2.3-0.8,3.2c-0.5,1-1.2,1.7-2.1,2.3
			C114.2,28.8,113.1,29.1,111.7,29.1z M111.7,27.5c1.3,0,2.4-0.4,3.2-1.3s1.3-2.1,1.3-3.6c0-0.3,0-0.6,0-1c0-0.4,0-0.8,0-1
			c-0.1-1.6-0.5-2.8-1.3-3.7c-0.8-0.8-1.9-1.2-3.2-1.2c-1.3,0-2.4,0.4-3.2,1.2c-0.8,0.8-1.3,2-1.3,3.7c0,0.3,0,0.6,0,1
			c0,0.4,0,0.8,0,1c0.1,1.6,0.5,2.8,1.3,3.6C109.3,27,110.4,27.5,111.7,27.5z"/>
		<path class="st1" d="M126,28.8c-1,0-1.7-0.2-2.3-0.6s-1-1-1.2-1.7c-0.2-0.7-0.3-1.5-0.3-2.4v-8.3H120c-0.2,0-0.3-0.1-0.4-0.2
			c-0.1-0.1-0.2-0.3-0.2-0.4v-0.4c0-0.2,0.1-0.3,0.2-0.4c0.1-0.1,0.3-0.2,0.4-0.2h2.2V9.5c0-0.2,0.1-0.3,0.2-0.4
			c0.1-0.1,0.3-0.2,0.4-0.2h0.5c0.2,0,0.3,0.1,0.4,0.2c0.1,0.1,0.2,0.3,0.2,0.4v4.7h3.5c0.2,0,0.3,0.1,0.4,0.2
			c0.1,0.1,0.2,0.3,0.2,0.4v0.4c0,0.2-0.1,0.3-0.2,0.4s-0.3,0.2-0.4,0.2h-3.5V24c0,1,0.2,1.8,0.5,2.3c0.3,0.6,0.9,0.8,1.8,0.8h1.5
			c0.2,0,0.3,0.1,0.4,0.2c0.1,0.1,0.2,0.3,0.2,0.4v0.4c0,0.2-0.1,0.3-0.2,0.4c-0.1,0.1-0.3,0.2-0.4,0.2H126z"/>
		<path class="st1" d="M135.9,29.1c-1.8,0-3.2-0.6-4.3-1.8c-1.1-1.2-1.7-2.7-1.8-4.7c0-0.3,0-0.7,0-1.1c0-0.5,0-0.8,0-1.1
			c0.1-1.3,0.4-2.4,0.9-3.4c0.5-1,1.2-1.7,2.1-2.3c0.9-0.5,1.9-0.8,3.2-0.8c1.3,0,2.4,0.3,3.3,0.9c0.9,0.6,1.6,1.4,2.1,2.5
			c0.5,1.1,0.7,2.4,0.7,3.9v0.4c0,0.2-0.1,0.3-0.2,0.4c-0.1,0.1-0.3,0.2-0.5,0.2h-10c0,0.1,0,0.2,0,0.3c0,0.8,0.2,1.6,0.6,2.4
			c0.4,0.8,0.9,1.4,1.5,1.8c0.7,0.5,1.4,0.7,2.3,0.7c0.8,0,1.5-0.1,2-0.4c0.5-0.2,1-0.5,1.3-0.8s0.5-0.5,0.6-0.7
			c0.2-0.2,0.3-0.4,0.4-0.4c0.1,0,0.2-0.1,0.4-0.1h0.4c0.2,0,0.3,0.1,0.4,0.2c0.1,0.1,0.2,0.2,0.2,0.4c0,0.3-0.2,0.6-0.4,1
			c-0.3,0.4-0.7,0.8-1.1,1.1c-0.5,0.4-1.1,0.7-1.8,0.9C137.5,29,136.7,29.1,135.9,29.1z M131.4,20.6h8.9v-0.1c0-0.9-0.2-1.8-0.5-2.5
			c-0.4-0.7-0.9-1.3-1.5-1.8c-0.7-0.4-1.5-0.7-2.4-0.7s-1.7,0.2-2.4,0.7c-0.7,0.4-1.2,1-1.5,1.8c-0.3,0.7-0.5,1.6-0.5,2.5V20.6z"/>
		<path class="st1" d="M145.8,28.8c-0.2,0-0.3-0.1-0.4-0.2c-0.1-0.1-0.2-0.3-0.2-0.4V14.9c0-0.2,0.1-0.3,0.2-0.5
			c0.1-0.1,0.3-0.2,0.4-0.2h0.4c0.2,0,0.3,0.1,0.5,0.2c0.1,0.1,0.2,0.3,0.2,0.5v1.3c0.3-0.7,0.8-1.1,1.5-1.5
			c0.6-0.3,1.4-0.5,2.4-0.5h1c0.2,0,0.3,0.1,0.4,0.2c0.1,0.1,0.2,0.3,0.2,0.4v0.4c0,0.2-0.1,0.3-0.2,0.4c-0.1,0.1-0.3,0.2-0.4,0.2
			h-1.2c-1.1,0-2,0.3-2.7,1c-0.7,0.7-1,1.5-1,2.7v8.7c0,0.2-0.1,0.3-0.2,0.4c-0.1,0.1-0.3,0.2-0.5,0.2H145.8z"/>
		<path class="st1" d="M155.1,28.8c-0.2,0-0.4-0.1-0.5-0.2c-0.1-0.1-0.2-0.3-0.2-0.5V9.9c0-0.2,0.1-0.4,0.2-0.5
			c0.1-0.1,0.3-0.2,0.5-0.2h3.6c0.2,0,0.4,0.1,0.5,0.2c0.1,0.1,0.2,0.3,0.2,0.5v6.8h6.9V9.9c0-0.2,0.1-0.4,0.2-0.5
			c0.1-0.1,0.3-0.2,0.5-0.2h3.6c0.2,0,0.4,0.1,0.5,0.2c0.1,0.1,0.2,0.3,0.2,0.5v18.2c0,0.2-0.1,0.4-0.2,0.5
			c-0.1,0.1-0.3,0.2-0.5,0.2H167c-0.2,0-0.4-0.1-0.5-0.2c-0.1-0.1-0.2-0.3-0.2-0.5v-7h-6.9v7c0,0.2-0.1,0.4-0.2,0.5
			s-0.3,0.2-0.5,0.2H155.1z"/>
		<path class="st1" d="M181.2,29.1c-1.6,0-2.9-0.3-4-0.8c-1.1-0.5-1.9-1.2-2.5-2.2c-0.6-0.9-0.9-2.1-1-3.4c0-0.4,0-0.8,0-1.3
			s0-0.9,0-1.2c0.1-1.3,0.4-2.5,1-3.4c0.6-0.9,1.4-1.7,2.5-2.2c1.1-0.5,2.4-0.8,3.9-0.8c1.5,0,2.8,0.3,3.9,0.8
			c1.1,0.5,1.9,1.2,2.5,2.2c0.6,0.9,0.9,2.1,1,3.4c0,0.4,0,0.8,0,1.2s0,0.9,0,1.3c-0.1,1.3-0.4,2.4-1,3.4s-1.4,1.7-2.5,2.2
			C184.1,28.8,182.8,29.1,181.2,29.1z M181.2,25.7c0.8,0,1.5-0.3,1.8-0.8s0.6-1.3,0.7-2.3c0-0.3,0-0.7,0-1.1c0-0.5,0-0.8,0-1.1
			c-0.1-1-0.3-1.7-0.7-2.3s-1-0.8-1.8-0.8c-0.8,0-1.4,0.3-1.8,0.8c-0.4,0.5-0.6,1.3-0.6,2.3c0,0.3,0,0.7,0,1.1c0,0.5,0,0.8,0,1.1
			c0,1,0.3,1.8,0.6,2.3C179.8,25.4,180.4,25.7,181.2,25.7z"/>
		<path class="st1" d="M196.2,29.1c-1.1,0-2-0.2-2.8-0.7c-0.8-0.5-1.5-1.2-1.9-2.1c-0.5-0.9-0.7-2.1-0.7-3.5v-7.8
			c0-0.2,0.1-0.4,0.2-0.5c0.1-0.1,0.3-0.2,0.5-0.2h3.5c0.2,0,0.4,0.1,0.5,0.2c0.1,0.1,0.2,0.3,0.2,0.5v7.6c0,1.8,0.8,2.7,2.5,2.7
			c0.8,0,1.4-0.2,1.8-0.7c0.5-0.5,0.7-1.2,0.7-2v-7.6c0-0.2,0.1-0.4,0.2-0.5c0.1-0.1,0.3-0.2,0.5-0.2h3.5c0.2,0,0.4,0.1,0.5,0.2
			c0.1,0.1,0.2,0.3,0.2,0.5v13.2c0,0.2-0.1,0.4-0.2,0.5s-0.3,0.2-0.5,0.2h-3.2c-0.2,0-0.4-0.1-0.5-0.2c-0.1-0.1-0.2-0.3-0.2-0.5V27
			c-0.5,0.7-1.1,1.2-1.9,1.5C198.2,28.9,197.2,29.1,196.2,29.1z"/>
		<path class="st1" d="M214.2,29.1c-1.2,0-2.2-0.1-3.1-0.4s-1.5-0.6-2.1-1c-0.5-0.4-0.9-0.8-1.2-1.2c-0.3-0.4-0.4-0.8-0.4-1.1
			c0-0.2,0-0.4,0.2-0.5s0.3-0.2,0.5-0.2h3.2c0.1,0,0.1,0,0.1,0c0,0,0.1,0.1,0.2,0.1c0.2,0.1,0.5,0.3,0.7,0.5
			c0.2,0.2,0.5,0.4,0.8,0.5s0.7,0.2,1.1,0.2c0.5,0,1-0.1,1.3-0.3c0.4-0.2,0.5-0.5,0.5-0.9c0-0.3-0.1-0.5-0.3-0.7
			c-0.2-0.2-0.5-0.4-1-0.6c-0.5-0.2-1.3-0.4-2.3-0.6c-1-0.2-1.8-0.5-2.5-0.9s-1.3-0.8-1.7-1.4c-0.4-0.6-0.6-1.3-0.6-2.1
			c0-0.7,0.2-1.5,0.7-2.2c0.5-0.7,1.2-1.3,2.1-1.7c0.9-0.4,2.1-0.7,3.4-0.7c1.1,0,2,0.1,2.8,0.4c0.8,0.3,1.5,0.6,2,1s1,0.8,1.2,1.2
			c0.3,0.4,0.4,0.8,0.4,1.1c0,0.2,0,0.4-0.2,0.5s-0.3,0.2-0.4,0.2H217c-0.1,0-0.1,0-0.2,0c-0.1,0-0.1-0.1-0.2-0.1
			c-0.2-0.1-0.4-0.3-0.7-0.4c-0.2-0.2-0.5-0.4-0.8-0.5c-0.3-0.1-0.7-0.2-1.1-0.2c-0.5,0-0.9,0.1-1.2,0.3c-0.3,0.2-0.4,0.5-0.4,0.9
			c0,0.2,0.1,0.5,0.2,0.7c0.2,0.2,0.5,0.4,1,0.6c0.5,0.2,1.3,0.4,2.3,0.6c1.3,0.2,2.3,0.5,3.1,1c0.8,0.5,1.3,1,1.6,1.6
			c0.3,0.6,0.5,1.2,0.5,1.9c0,0.9-0.3,1.7-0.8,2.4c-0.5,0.7-1.3,1.2-2.4,1.6C216.9,28.9,215.6,29.1,214.2,29.1z"/>
		<path class="st1" d="M230,29.1c-2.2,0-4-0.6-5.3-1.8c-1.3-1.2-2-3-2-5.3c0-0.1,0-0.3,0-0.5s0-0.4,0-0.5c0.1-1.5,0.4-2.7,1-3.8
			c0.6-1.1,1.4-1.9,2.5-2.4c1.1-0.6,2.3-0.8,3.8-0.8c1.6,0,3,0.3,4.1,1c1.1,0.7,1.9,1.5,2.4,2.7c0.5,1.1,0.8,2.4,0.8,3.8v0.7
			c0,0.2-0.1,0.4-0.2,0.5c-0.1,0.1-0.3,0.2-0.5,0.2h-9c0,0,0,0,0,0.1c0,0,0,0.1,0,0.1c0,0.5,0.1,1,0.3,1.5c0.2,0.4,0.4,0.8,0.8,1.1
			c0.4,0.3,0.8,0.4,1.3,0.4c0.4,0,0.7-0.1,0.9-0.2s0.5-0.3,0.6-0.4c0.2-0.2,0.3-0.3,0.4-0.4c0.2-0.2,0.3-0.3,0.4-0.4
			c0.1,0,0.3-0.1,0.5-0.1h3.5c0.2,0,0.3,0.1,0.5,0.2c0.1,0.1,0.2,0.2,0.2,0.4c0,0.3-0.2,0.7-0.5,1.1c-0.3,0.4-0.7,0.9-1.3,1.3
			c-0.6,0.4-1.3,0.8-2.1,1.1C232.1,28.9,231.1,29.1,230,29.1z M227.6,20h4.7V20c0-0.6-0.1-1.1-0.3-1.6s-0.4-0.8-0.8-1
			c-0.4-0.2-0.8-0.4-1.3-0.4c-0.5,0-0.9,0.1-1.3,0.4c-0.3,0.2-0.6,0.6-0.8,1S227.6,19.4,227.6,20L227.6,20z"/>
	</g>
	<g>
		<path class="st0" d="M73.6,44c-0.1,0-0.1,0-0.2-0.1c0,0-0.1-0.1-0.1-0.2v-6.3c0-0.1,0-0.1,0.1-0.2s0.1-0.1,0.2-0.1h3.7
			c0.1,0,0.1,0,0.2,0.1c0,0,0.1,0.1,0.1,0.2v0.1c0,0.1,0,0.1-0.1,0.2c0,0-0.1,0.1-0.2,0.1H74v2.4h3.1c0.1,0,0.1,0,0.2,0.1
			c0,0,0.1,0.1,0.1,0.2v0.1c0,0.1,0,0.1-0.1,0.2c0,0-0.1,0.1-0.2,0.1H74v2.5h3.4c0.1,0,0.1,0,0.2,0.1c0,0,0.1,0.1,0.1,0.2v0.1
			c0,0.1,0,0.1-0.1,0.2c0,0-0.1,0.1-0.2,0.1H73.6z"/>
		<path class="st0" d="M83.5,44.1c-0.5,0-1-0.1-1.3-0.2c-0.4-0.2-0.6-0.4-0.8-0.6s-0.3-0.5-0.3-0.8c0-0.1,0-0.1,0.1-0.1
			c0,0,0.1-0.1,0.1-0.1h0.2c0.1,0,0.1,0,0.1,0.1s0.1,0.1,0.1,0.1c0,0.2,0.1,0.4,0.2,0.5c0.1,0.2,0.3,0.3,0.6,0.4
			c0.3,0.1,0.6,0.2,1,0.2c0.6,0,1.1-0.1,1.4-0.3c0.3-0.2,0.4-0.5,0.4-0.9c0-0.3-0.1-0.5-0.2-0.6c-0.1-0.2-0.4-0.3-0.7-0.4
			c-0.3-0.1-0.7-0.3-1.2-0.4c-0.5-0.1-0.8-0.3-1.1-0.5c-0.3-0.2-0.5-0.3-0.6-0.6c-0.1-0.2-0.2-0.5-0.2-0.9c0-0.3,0.1-0.6,0.3-0.9
			c0.2-0.3,0.4-0.5,0.8-0.6c0.3-0.2,0.7-0.2,1.2-0.2c0.4,0,0.7,0.1,1,0.2c0.3,0.1,0.5,0.2,0.7,0.4s0.3,0.4,0.4,0.5
			c0.1,0.2,0.1,0.4,0.2,0.6c0,0,0,0.1,0,0.1c0,0-0.1,0.1-0.2,0.1h-0.2c0,0-0.1,0-0.1,0s-0.1-0.1-0.1-0.2c0-0.3-0.2-0.6-0.5-0.8
			s-0.7-0.3-1.2-0.3s-0.9,0.1-1.2,0.3c-0.3,0.2-0.4,0.5-0.4,0.9c0,0.3,0.1,0.5,0.2,0.6c0.1,0.2,0.3,0.3,0.6,0.4
			c0.3,0.1,0.7,0.3,1.1,0.4c0.5,0.2,0.9,0.3,1.2,0.5c0.3,0.2,0.5,0.3,0.7,0.6c0.2,0.2,0.2,0.5,0.2,0.9c0,0.4-0.1,0.7-0.3,1
			c-0.2,0.3-0.5,0.5-0.8,0.6C84.4,44,84,44.1,83.5,44.1z"/>
		<path class="st0" d="M92.1,44.1c-0.6,0-1.1-0.1-1.4-0.3c-0.4-0.2-0.6-0.5-0.8-0.9c-0.2-0.4-0.3-0.8-0.3-1.3c0-0.3,0-0.5,0-0.8
			s0-0.6,0-0.9c0-0.5,0.1-0.9,0.3-1.3s0.5-0.7,0.8-0.9c0.4-0.2,0.8-0.3,1.4-0.3c0.5,0,0.8,0.1,1.2,0.2c0.3,0.1,0.6,0.3,0.8,0.5
			c0.2,0.2,0.4,0.4,0.5,0.7c0.1,0.2,0.2,0.5,0.2,0.7c0,0.1,0,0.1-0.1,0.1s-0.1,0.1-0.1,0.1h-0.2c-0.1,0-0.1,0-0.1,0
			c0,0-0.1-0.1-0.1-0.2c-0.1-0.6-0.3-1-0.7-1.2c-0.3-0.2-0.8-0.3-1.3-0.3c-0.6,0-1,0.2-1.4,0.5c-0.3,0.3-0.5,0.9-0.6,1.6
			c0,0.5,0,1.1,0,1.6c0,0.7,0.2,1.2,0.6,1.6c0.3,0.3,0.8,0.5,1.4,0.5c0.5,0,0.9-0.1,1.3-0.3c0.3-0.2,0.6-0.6,0.7-1.2
			c0-0.1,0-0.1,0.1-0.2c0,0,0.1,0,0.1,0h0.2c0.1,0,0.1,0,0.1,0.1c0,0,0.1,0.1,0.1,0.1c0,0.2-0.1,0.5-0.2,0.7
			c-0.1,0.2-0.2,0.5-0.5,0.7c-0.2,0.2-0.5,0.4-0.8,0.5C93,44,92.6,44.1,92.1,44.1z"/>
		<path class="st0" d="M101,44.1c-0.5,0-1-0.1-1.3-0.3c-0.4-0.2-0.6-0.5-0.8-0.9s-0.3-0.9-0.3-1.5v-3.9c0-0.1,0-0.1,0.1-0.2
			c0,0,0.1-0.1,0.2-0.1h0.2c0.1,0,0.1,0,0.2,0.1s0.1,0.1,0.1,0.2v3.9c0,0.7,0.2,1.2,0.5,1.6s0.8,0.5,1.4,0.5c0.6,0,1-0.2,1.4-0.5
			s0.5-0.9,0.5-1.6v-3.9c0-0.1,0-0.1,0.1-0.2s0.1-0.1,0.2-0.1h0.2c0.1,0,0.1,0,0.2,0.1s0.1,0.1,0.1,0.2v3.9c0,0.6-0.1,1.1-0.3,1.5
			c-0.2,0.4-0.5,0.7-0.8,0.9S101.5,44.1,101,44.1z"/>
		<path class="st0" d="M107.8,44c-0.1,0-0.1,0-0.2-0.1c0,0-0.1-0.1-0.1-0.2v-6.3c0-0.1,0-0.1,0.1-0.2s0.1-0.1,0.2-0.1h3.7
			c0.1,0,0.1,0,0.2,0.1c0,0,0.1,0.1,0.1,0.2v0.1c0,0.1,0,0.1-0.1,0.2c0,0-0.1,0.1-0.2,0.1h-3.3v2.4h3.1c0.1,0,0.1,0,0.2,0.1
			c0,0,0.1,0.1,0.1,0.2v0.1c0,0.1,0,0.1-0.1,0.2c0,0-0.1,0.1-0.2,0.1h-3.1v2.5h3.4c0.1,0,0.1,0,0.2,0.1c0,0,0.1,0.1,0.1,0.2v0.1
			c0,0.1,0,0.1-0.1,0.2c0,0-0.1,0.1-0.2,0.1H107.8z"/>
		<path class="st0" d="M116,44c-0.1,0-0.1,0-0.2-0.1c0,0-0.1-0.1-0.1-0.2v-6.3c0-0.1,0-0.1,0.1-0.2s0.1-0.1,0.2-0.1h0.2
			c0.1,0,0.1,0,0.2,0.1c0,0,0.1,0.1,0.1,0.2v5.9h3.3c0.1,0,0.1,0,0.2,0.1c0,0,0.1,0.1,0.1,0.2v0.1c0,0.1,0,0.1-0.1,0.2
			c0,0-0.1,0.1-0.2,0.1H116z"/>
		<path class="st0" d="M123.4,44c-0.1,0-0.1,0-0.1-0.1c0,0-0.1-0.1-0.1-0.1c0,0,0-0.1,0-0.1l2.4-6.2c0-0.1,0.1-0.1,0.1-0.1
			c0,0,0.1,0,0.2,0h0.3c0.1,0,0.1,0,0.2,0c0,0,0.1,0.1,0.1,0.1l2.4,6.2c0,0,0,0.1,0,0.1c0,0.1,0,0.1-0.1,0.1c0,0-0.1,0.1-0.1,0.1
			h-0.2c-0.1,0-0.1,0-0.1-0.1c0,0-0.1-0.1-0.1-0.1l-0.6-1.5h-3.4l-0.6,1.5c0,0,0,0.1-0.1,0.1c0,0-0.1,0.1-0.1,0.1H123.4z
			 M124.7,41.7h2.9l-1.5-3.8L124.7,41.7z"/>
		<path class="st0" d="M137.6,44c-0.1,0-0.1,0-0.2-0.1c0,0-0.1-0.1-0.1-0.2v-6.3c0-0.1,0-0.1,0.1-0.2s0.1-0.1,0.2-0.1h2
			c0.7,0,1.2,0.1,1.6,0.3c0.4,0.2,0.7,0.5,0.8,0.9c0.2,0.4,0.2,0.9,0.3,1.4c0,0.3,0,0.5,0,0.8c0,0.2,0,0.5,0,0.8
			c0,0.6-0.1,1.1-0.3,1.5s-0.4,0.7-0.8,0.9c-0.4,0.2-0.9,0.3-1.6,0.3H137.6z M138,43.4h1.6c0.5,0,0.9-0.1,1.2-0.2
			c0.3-0.1,0.5-0.4,0.6-0.7c0.1-0.3,0.2-0.7,0.2-1.2c0-0.2,0-0.4,0-0.5s0-0.3,0-0.4s0-0.3,0-0.5c0-0.7-0.2-1.2-0.5-1.6
			s-0.9-0.5-1.6-0.5H138V43.4z"/>
		<path class="st0" d="M146.6,44c-0.1,0-0.1,0-0.2-0.1c0,0-0.1-0.1-0.1-0.2v-6.3c0-0.1,0-0.1,0.1-0.2s0.1-0.1,0.2-0.1h3.7
			c0.1,0,0.1,0,0.2,0.1c0,0,0.1,0.1,0.1,0.2v0.1c0,0.1,0,0.1-0.1,0.2c0,0-0.1,0.1-0.2,0.1H147v2.4h3.1c0.1,0,0.1,0,0.2,0.1
			s0.1,0.1,0.1,0.2v0.1c0,0.1,0,0.1-0.1,0.2c0,0-0.1,0.1-0.2,0.1H147v2.5h3.4c0.1,0,0.1,0,0.2,0.1s0.1,0.1,0.1,0.2v0.1
			c0,0.1,0,0.1-0.1,0.2c0,0-0.1,0.1-0.2,0.1H146.6z"/>
		<path class="st0" d="M159.5,44c-0.1,0-0.1,0-0.2-0.1c0,0-0.1-0.1-0.1-0.2v-6.3c0-0.1,0-0.1,0.1-0.2s0.1-0.1,0.2-0.1h3.7
			c0.1,0,0.1,0,0.2,0.1s0.1,0.1,0.1,0.2v0.1c0,0.1,0,0.1-0.1,0.2c0,0-0.1,0.1-0.2,0.1h-3.3v2.6h3.1c0.1,0,0.1,0,0.2,0.1
			c0,0,0.1,0.1,0.1,0.2v0.1c0,0.1,0,0.1-0.1,0.2c0,0-0.1,0.1-0.2,0.1h-3.1v2.8c0,0.1,0,0.1-0.1,0.2c0,0-0.1,0.1-0.2,0.1H159.5z"/>
		<path class="st0" d="M169.6,44.1c-0.5,0-1-0.1-1.3-0.3c-0.4-0.2-0.7-0.5-0.9-0.9c-0.2-0.4-0.3-0.9-0.3-1.5c0-0.3,0-0.6,0-0.8
			c0-0.2,0-0.5,0-0.8c0-0.6,0.1-1.1,0.3-1.5c0.2-0.4,0.5-0.7,0.9-0.9s0.8-0.3,1.3-0.3c0.5,0,0.9,0.1,1.3,0.3
			c0.4,0.2,0.7,0.5,0.9,0.9s0.3,0.9,0.3,1.5c0,0.3,0,0.6,0,0.8c0,0.2,0,0.5,0,0.8c0,0.6-0.1,1.1-0.3,1.5c-0.2,0.4-0.5,0.7-0.9,0.9
			C170.5,44,170.1,44.1,169.6,44.1z M169.6,43.5c0.5,0,1-0.2,1.4-0.5c0.4-0.3,0.5-0.9,0.6-1.6c0-0.3,0-0.5,0-0.8s0-0.5,0-0.8
			c0-0.5-0.1-0.9-0.3-1.2s-0.4-0.5-0.7-0.7c-0.3-0.1-0.6-0.2-1-0.2c-0.4,0-0.7,0.1-1,0.2c-0.3,0.1-0.5,0.4-0.7,0.7s-0.3,0.7-0.3,1.2
			c0,0.3,0,0.5,0,0.8s0,0.5,0,0.8c0,0.7,0.2,1.3,0.6,1.6C168.6,43.3,169,43.5,169.6,43.5z"/>
		<path class="st0" d="M177.7,44c-0.1,0-0.1,0-0.2-0.1c0,0-0.1-0.1-0.1-0.2v-5.9h-1.9c-0.1,0-0.1,0-0.2-0.1c0,0-0.1-0.1-0.1-0.2
			v-0.1c0-0.1,0-0.1,0.1-0.2c0,0,0.1-0.1,0.2-0.1h4.4c0.1,0,0.1,0,0.2,0.1s0.1,0.1,0.1,0.2v0.1c0,0.1,0,0.1-0.1,0.2
			c0,0-0.1,0.1-0.2,0.1h-1.9v5.9c0,0.1,0,0.1-0.1,0.2c0,0-0.1,0.1-0.2,0.1H177.7z"/>
		<path class="st0" d="M186,44.1c-0.5,0-1-0.1-1.3-0.3c-0.4-0.2-0.7-0.5-0.9-0.9c-0.2-0.4-0.3-0.9-0.3-1.5c0-0.3,0-0.6,0-0.8
			c0-0.2,0-0.5,0-0.8c0-0.6,0.1-1.1,0.3-1.5c0.2-0.4,0.5-0.7,0.9-0.9s0.8-0.3,1.3-0.3c0.5,0,0.9,0.1,1.3,0.3
			c0.4,0.2,0.7,0.5,0.9,0.9s0.3,0.9,0.3,1.5c0,0.3,0,0.6,0,0.8c0,0.2,0,0.5,0,0.8c0,0.6-0.1,1.1-0.3,1.5c-0.2,0.4-0.5,0.7-0.9,0.9
			C187,44,186.6,44.1,186,44.1z M186,43.5c0.5,0,1-0.2,1.4-0.5c0.4-0.3,0.5-0.9,0.6-1.6c0-0.3,0-0.5,0-0.8s0-0.5,0-0.8
			c0-0.5-0.1-0.9-0.3-1.2s-0.4-0.5-0.7-0.7c-0.3-0.1-0.6-0.2-1-0.2c-0.4,0-0.7,0.1-1,0.2c-0.3,0.1-0.5,0.4-0.7,0.7s-0.3,0.7-0.3,1.2
			c0,0.3,0,0.5,0,0.8s0,0.5,0,0.8c0,0.7,0.2,1.3,0.6,1.6C185,43.3,185.5,43.5,186,43.5z"/>
		<path class="st0" d="M194.9,44.1c-0.5,0-1-0.1-1.4-0.3s-0.7-0.5-0.9-0.9s-0.3-0.8-0.3-1.3c0-0.3,0-0.6,0-0.9c0-0.3,0-0.6,0-0.9
			c0-0.5,0.1-0.9,0.3-1.3s0.5-0.7,0.9-0.9c0.4-0.2,0.8-0.3,1.4-0.3c0.4,0,0.8,0.1,1.1,0.2c0.3,0.1,0.6,0.3,0.8,0.5
			c0.2,0.2,0.3,0.4,0.4,0.6c0.1,0.2,0.1,0.4,0.2,0.5c0,0.1,0,0.1,0,0.1c0,0-0.1,0.1-0.2,0.1H197c-0.1,0-0.1,0-0.1,0
			c0,0-0.1-0.1-0.1-0.1c-0.1-0.2-0.2-0.4-0.3-0.6c-0.2-0.2-0.4-0.3-0.6-0.4s-0.6-0.2-1-0.2c-0.6,0-1,0.2-1.4,0.5S193,39,193,39.8
			c0,0.6,0,1.1,0,1.7c0,0.7,0.2,1.2,0.6,1.5s0.8,0.5,1.4,0.5c0.4,0,0.7-0.1,1-0.2s0.5-0.4,0.7-0.7c0.2-0.3,0.3-0.7,0.3-1.1V41h-1.7
			c-0.1,0-0.1,0-0.2-0.1c0,0-0.1-0.1-0.1-0.2v-0.1c0-0.1,0-0.1,0.1-0.2c0,0,0.1-0.1,0.2-0.1h2c0.1,0,0.1,0,0.2,0.1
			c0,0,0.1,0.1,0.1,0.2v0.8c0,0.5-0.1,1-0.3,1.3c-0.2,0.4-0.5,0.7-0.9,0.9C195.9,44,195.5,44.1,194.9,44.1z"/>
		<path class="st0" d="M201.7,44c-0.1,0-0.1,0-0.2-0.1c0,0-0.1-0.1-0.1-0.2v-6.3c0-0.1,0-0.1,0.1-0.2s0.1-0.1,0.2-0.1h2.2
			c0.7,0,1.2,0.2,1.6,0.5c0.4,0.3,0.6,0.8,0.6,1.5c0,0.5-0.1,0.9-0.4,1.2c-0.3,0.3-0.6,0.5-1.1,0.6l1.5,2.6c0,0,0,0.1,0,0.1
			c0,0.1,0,0.1-0.1,0.1c0,0-0.1,0.1-0.1,0.1h-0.1c-0.1,0-0.2,0-0.2-0.1c-0.1-0.1-0.1-0.1-0.1-0.2l-1.5-2.6h-2v2.6
			c0,0.1,0,0.1-0.1,0.2c0,0-0.1,0.1-0.2,0.1H201.7z M202.1,40.6h1.8c0.6,0,1-0.1,1.2-0.3s0.4-0.6,0.4-1s-0.1-0.8-0.4-1
			s-0.7-0.3-1.2-0.3h-1.8V40.6z"/>
		<path class="st0" d="M209.9,44c-0.1,0-0.1,0-0.1-0.1c0,0-0.1-0.1-0.1-0.1c0,0,0-0.1,0-0.1l2.4-6.2c0-0.1,0.1-0.1,0.1-0.1
			c0,0,0.1,0,0.2,0h0.3c0.1,0,0.1,0,0.2,0c0,0,0.1,0.1,0.1,0.1l2.4,6.2c0,0,0,0.1,0,0.1c0,0.1,0,0.1-0.1,0.1c0,0-0.1,0.1-0.1,0.1
			h-0.2c-0.1,0-0.1,0-0.1-0.1c0,0-0.1-0.1-0.1-0.1l-0.6-1.5h-3.4l-0.6,1.5c0,0,0,0.1-0.1,0.1c0,0-0.1,0.1-0.1,0.1H209.9z
			 M211.1,41.7h2.9l-1.5-3.8L211.1,41.7z"/>
		<path class="st0" d="M219.4,44c-0.1,0-0.1,0-0.2-0.1c0,0-0.1-0.1-0.1-0.2v-6.3c0-0.1,0-0.1,0.1-0.2s0.1-0.1,0.2-0.1h3.7
			c0.1,0,0.1,0,0.2,0.1s0.1,0.1,0.1,0.2v0.1c0,0.1,0,0.1-0.1,0.2c0,0-0.1,0.1-0.2,0.1h-3.3v2.6h3.1c0.1,0,0.1,0,0.2,0.1
			c0,0,0.1,0.1,0.1,0.2v0.1c0,0.1,0,0.1-0.1,0.2c0,0-0.1,0.1-0.2,0.1h-3.1v2.8c0,0.1,0,0.1-0.1,0.2c0,0-0.1,0.1-0.2,0.1H219.4z"/>
		<path class="st0" d="M227.3,44c-0.1,0-0.1,0-0.2-0.1c0,0-0.1-0.1-0.1-0.2v-6.3c0-0.1,0-0.1,0.1-0.2s0.1-0.1,0.2-0.1h0.2
			c0.1,0,0.1,0,0.2,0.1s0.1,0.1,0.1,0.2v6.3c0,0.1,0,0.1-0.1,0.2c0,0-0.1,0.1-0.2,0.1H227.3z M227.3,36.8c-0.1,0-0.2-0.1-0.2-0.2
			c0-0.1,0-0.1,0-0.1l0.7-0.8c0.1-0.1,0.1-0.1,0.1-0.1c0,0,0.1,0,0.2,0h0.4c0.1,0,0.2,0.1,0.2,0.2c0,0,0,0.1,0,0.1l-1,0.9
			c-0.1,0-0.1,0.1-0.1,0.1c0,0-0.1,0-0.2,0H227.3z"/>
		<path class="st0" d="M231.7,44c-0.1,0-0.1,0-0.1-0.1c0,0-0.1-0.1-0.1-0.1c0,0,0-0.1,0-0.1l2.4-6.2c0-0.1,0.1-0.1,0.1-0.1
			c0,0,0.1,0,0.2,0h0.3c0.1,0,0.1,0,0.2,0c0,0,0.1,0.1,0.1,0.1l2.4,6.2c0,0,0,0.1,0,0.1c0,0.1,0,0.1-0.1,0.1c0,0-0.1,0.1-0.1,0.1
			h-0.2c-0.1,0-0.1,0-0.1-0.1c0,0-0.1-0.1-0.1-0.1l-0.6-1.5h-3.4l-0.6,1.5c0,0,0,0.1-0.1,0.1c0,0-0.1,0.1-0.1,0.1H231.7z
			 M232.9,41.7h2.9l-1.5-3.8L232.9,41.7z"/>
	</g>
</g>
</svg>
